<svg width="25" height="25" viewBox="0 0 25 25" fill="none" xmlns="http://www.w3.org/2000/svg">
<path fill-rule="evenodd" clip-rule="evenodd" d="M13 3C7.477 3 3 7.484 3 13.017C3 17.442 5.865 21.197 9.839 22.521C10.339 22.613 10.521 22.304 10.521 22.038C10.521 21.801 10.513 21.17 10.508 20.335C7.726 20.94 7.139 18.992 7.139 18.992C6.685 17.834 6.029 17.526 6.029 17.526C5.121 16.906 6.098 16.918 6.098 16.918C7.101 16.988 7.629 17.95 7.629 17.95C8.521 19.48 9.97 19.038 10.539 18.782C10.631 18.135 10.889 17.694 11.175 17.444C8.955 17.191 6.62 16.331 6.62 12.493C6.62 11.4 7.01 10.505 7.649 9.805C7.546 9.552 7.203 8.533 7.747 7.155C7.747 7.155 8.587 6.885 10.497 8.181C11.3128 7.95851 12.1544 7.84519 13 7.844C13.85 7.848 14.705 7.959 15.504 8.181C17.413 6.885 18.251 7.154 18.251 7.154C18.797 8.533 18.453 9.552 18.351 9.805C18.991 10.505 19.379 11.4 19.379 12.493C19.379 16.341 17.04 17.188 14.813 17.436C15.172 17.745 15.491 18.356 15.491 19.291C15.491 20.629 15.479 21.71 15.479 22.038C15.479 22.306 15.659 22.618 16.167 22.52C18.1583 21.8521 19.8893 20.5753 21.1155 18.87C22.3416 17.1648 23.0009 15.1173 23 13.017C23 7.484 18.522 3 13 3Z" fill="#A1A1A1"/>
</svg>
