<svg width="24" height="24" viewBox="0 0 24 24" fill="none" xmlns="http://www.w3.org/2000/svg">
<path fill-rule="evenodd" clip-rule="evenodd" d="M9.353 2.9391C9.49145 3.07776 9.58611 3.25405 9.62522 3.44605C9.66433 3.63806 9.64618 3.83733 9.573 4.0191C8.98754 5.47415 8.8427 7.06919 9.15649 8.6059C9.47028 10.1426 10.2289 11.5532 11.3379 12.6622C12.4469 13.7712 13.8575 14.5298 15.3942 14.8436C16.9309 15.1574 18.526 15.0126 19.981 14.4271C20.1628 14.3541 20.362 14.336 20.5539 14.3752C20.7459 14.4144 20.9221 14.5092 21.0606 14.6476C21.1992 14.7861 21.2941 14.9622 21.3334 15.1541C21.3728 15.346 21.3549 15.5453 21.282 15.7271C20.5375 17.5796 19.2557 19.167 17.6016 20.2849C15.9474 21.4028 13.9965 22.0002 12 22.0001C6.477 22.0001 2 17.5231 2 12.0001C2 7.7931 4.598 4.1951 8.273 2.7181C8.45477 2.64492 8.65404 2.62676 8.84605 2.66588C9.03805 2.70499 9.21434 2.79965 9.353 2.9381V2.9391Z" fill="#A1A1A1"/>
</svg>
