<svg width="25" height="25" viewBox="0 0 25 25" fill="none" xmlns="http://www.w3.org/2000/svg">
<path d="M9.29 21.251C16.837 21.251 20.965 14.998 20.965 9.57596C20.965 9.39796 20.965 9.22096 20.953 9.04596C21.7562 8.46448 22.4493 7.74457 23 6.91996C22.2511 7.25196 21.4566 7.46972 20.643 7.56596C21.4996 7.05302 22.1408 6.24631 22.447 5.29596C21.6417 5.77384 20.7607 6.11069 19.842 6.29196C19.2234 5.63372 18.405 5.19779 17.5136 5.05166C16.6222 4.90553 15.7075 5.05736 14.9111 5.48363C14.1147 5.9099 13.4811 6.58683 13.1083 7.40962C12.7355 8.2324 12.6444 9.15514 12.849 10.035C11.2176 9.9532 9.6216 9.52928 8.16465 8.79073C6.70769 8.05217 5.42233 7.01548 4.392 5.74796C3.86732 6.65116 3.70659 7.72038 3.94254 8.73792C4.17848 9.75547 4.79337 10.6448 5.662 11.225C5.00926 11.2061 4.37063 11.0305 3.8 10.713V10.765C3.80039 11.7123 4.1284 12.6303 4.7284 13.3633C5.3284 14.0964 6.16347 14.5993 7.092 14.787C6.48781 14.9517 5.85389 14.9756 5.239 14.857C5.50116 15.6724 6.01168 16.3856 6.69913 16.8966C7.38658 17.4076 8.21657 17.6909 9.073 17.707C8.22212 18.3755 7.24779 18.8698 6.20573 19.1615C5.16367 19.4532 4.07432 19.5366 3 19.407C4.8766 20.6113 7.06019 21.2501 9.29 21.247" fill="#A1A1A1"/>
</svg>
